<svg xmlns="http://www.w3.org/2000/svg" width="16" height="16" viewBox="0 0 16 16" fill="white"><path fill-rule="evenodd" d="M8 16c4.369 0 8-3.623 8-8 0-4.369-3.64-8-8.008-8C3.616 0 0 3.631 0 8c0 4.377 3.624 8 8 8Zm0-1.333A6.634 6.634 0 0 1 1.341 8a6.633 6.633 0 0 1 6.651-6.667A6.663 6.663 0 0 1 14.667 8 6.641 6.641 0 0 1 8 14.667Zm-4.11-5.82a.534.534 0 0 1-.541-.549c0-.306.235-.541.541-.541h3.561V3.012c0-.306.235-.541.541-.541a.54.54 0 0 1 .55.54v5.287a.54.54 0 0 1-.55.55H3.89Z" clip-rule="evenodd"/></svg>